<mxfile host="app.diagrams.net" modified="2020-11-09T08:31:07.124Z" agent="5.0 (Macintosh; Intel Mac OS X 10_15_7) AppleWebKit/537.36 (KHTML, like Gecko) Chrome/86.0.4240.111 Safari/537.36" etag="plsLdwW62EBervzBrHen" version="13.8.6" type="github">
  <diagram id="BA6BoKVD62JwFN8tU82A" name="Page-1">
    <mxGraphModel dx="1332" dy="2161" grid="1" gridSize="10" guides="1" tooltips="1" connect="1" arrows="1" fold="1" page="1" pageScale="1" pageWidth="827" pageHeight="1169" math="0" shadow="0">
      <root>
        <mxCell id="0" />
        <mxCell id="1" parent="0" />
        <mxCell id="PDsMdYbchzR6qBBDPlei-3" value="" style="edgeStyle=orthogonalEdgeStyle;rounded=0;orthogonalLoop=1;jettySize=auto;html=1;fontFamily=Comic Sans MS;fontStyle=1;fontSize=17;" parent="1" edge="1">
          <mxGeometry relative="1" as="geometry">
            <mxPoint x="410" y="390" as="sourcePoint" />
            <mxPoint x="410" y="470" as="targetPoint" />
          </mxGeometry>
        </mxCell>
        <mxCell id="PDsMdYbchzR6qBBDPlei-4" value="app抽样" style="rounded=1;whiteSpace=wrap;html=1;fontFamily=Comic Sans MS;fontStyle=1;fontSize=17;" parent="1" vertex="1">
          <mxGeometry x="350" y="330" width="120" height="60" as="geometry" />
        </mxCell>
        <mxCell id="PDsMdYbchzR6qBBDPlei-7" value="" style="edgeStyle=orthogonalEdgeStyle;rounded=0;orthogonalLoop=1;jettySize=auto;html=1;fontFamily=Comic Sans MS;fontStyle=1;fontSize=17;" parent="1" source="PDsMdYbchzR6qBBDPlei-5" target="PDsMdYbchzR6qBBDPlei-6" edge="1">
          <mxGeometry relative="1" as="geometry" />
        </mxCell>
        <mxCell id="PDsMdYbchzR6qBBDPlei-5" value="页面场景分类拆解" style="rounded=1;whiteSpace=wrap;html=1;fontFamily=Comic Sans MS;fontStyle=1;fontSize=17;" parent="1" vertex="1">
          <mxGeometry x="350" y="470" width="120" height="60" as="geometry" />
        </mxCell>
        <mxCell id="PDsMdYbchzR6qBBDPlei-12" style="edgeStyle=orthogonalEdgeStyle;rounded=0;orthogonalLoop=1;jettySize=auto;html=1;exitX=0.5;exitY=1;exitDx=0;exitDy=0;entryX=0.5;entryY=0;entryDx=0;entryDy=0;fontFamily=Comic Sans MS;fontStyle=1;fontSize=17;" parent="1" source="PDsMdYbchzR6qBBDPlei-6" target="PDsMdYbchzR6qBBDPlei-8" edge="1">
          <mxGeometry relative="1" as="geometry" />
        </mxCell>
        <mxCell id="PDsMdYbchzR6qBBDPlei-13" style="edgeStyle=orthogonalEdgeStyle;rounded=0;orthogonalLoop=1;jettySize=auto;html=1;fontFamily=Comic Sans MS;fontStyle=1;fontSize=17;" parent="1" source="PDsMdYbchzR6qBBDPlei-6" target="PDsMdYbchzR6qBBDPlei-10" edge="1">
          <mxGeometry relative="1" as="geometry" />
        </mxCell>
        <mxCell id="PDsMdYbchzR6qBBDPlei-6" value="UI元素相似度归纳" style="rounded=1;whiteSpace=wrap;html=1;fontFamily=Comic Sans MS;fontStyle=1;fontSize=17;" parent="1" vertex="1">
          <mxGeometry x="350" y="610" width="120" height="60" as="geometry" />
        </mxCell>
        <mxCell id="PDsMdYbchzR6qBBDPlei-15" style="edgeStyle=orthogonalEdgeStyle;rounded=0;orthogonalLoop=1;jettySize=auto;html=1;fontFamily=Comic Sans MS;fontStyle=1;fontSize=17;" parent="1" source="PDsMdYbchzR6qBBDPlei-8" target="PDsMdYbchzR6qBBDPlei-14" edge="1">
          <mxGeometry relative="1" as="geometry" />
        </mxCell>
        <mxCell id="PDsMdYbchzR6qBBDPlei-8" value="区块" style="rounded=1;whiteSpace=wrap;html=1;fontFamily=Comic Sans MS;fontStyle=1;fontSize=17;" parent="1" vertex="1">
          <mxGeometry x="250" y="750" width="120" height="60" as="geometry" />
        </mxCell>
        <mxCell id="PDsMdYbchzR6qBBDPlei-16" style="edgeStyle=orthogonalEdgeStyle;rounded=0;orthogonalLoop=1;jettySize=auto;html=1;entryX=0.5;entryY=0;entryDx=0;entryDy=0;fontFamily=Comic Sans MS;fontStyle=1;fontSize=17;" parent="1" source="PDsMdYbchzR6qBBDPlei-10" target="PDsMdYbchzR6qBBDPlei-14" edge="1">
          <mxGeometry relative="1" as="geometry" />
        </mxCell>
        <mxCell id="PDsMdYbchzR6qBBDPlei-10" value="组件" style="rounded=1;whiteSpace=wrap;html=1;fontFamily=Comic Sans MS;fontStyle=1;fontSize=17;" parent="1" vertex="1">
          <mxGeometry x="460" y="750" width="120" height="60" as="geometry" />
        </mxCell>
        <mxCell id="PDsMdYbchzR6qBBDPlei-18" value="" style="edgeStyle=orthogonalEdgeStyle;rounded=0;orthogonalLoop=1;jettySize=auto;html=1;fontFamily=Comic Sans MS;fontStyle=1;fontSize=17;" parent="1" source="PDsMdYbchzR6qBBDPlei-14" target="PDsMdYbchzR6qBBDPlei-17" edge="1">
          <mxGeometry relative="1" as="geometry" />
        </mxCell>
        <mxCell id="PDsMdYbchzR6qBBDPlei-14" value="页面场景覆盖" style="rounded=1;whiteSpace=wrap;html=1;fontFamily=Comic Sans MS;fontStyle=1;fontSize=17;" parent="1" vertex="1">
          <mxGeometry x="354" y="880" width="120" height="60" as="geometry" />
        </mxCell>
        <mxCell id="PDsMdYbchzR6qBBDPlei-17" value="app业务" style="rounded=1;whiteSpace=wrap;html=1;fontFamily=Comic Sans MS;fontStyle=1;fontSize=17;" parent="1" vertex="1">
          <mxGeometry x="354" y="1020" width="120" height="60" as="geometry" />
        </mxCell>
        <mxCell id="PDsMdYbchzR6qBBDPlei-19" value="重灵活" style="text;html=1;strokeColor=none;fillColor=none;align=center;verticalAlign=middle;whiteSpace=wrap;rounded=0;fontFamily=Comic Sans MS;fontStyle=1;fontSize=17;" parent="1" vertex="1">
          <mxGeometry x="310" y="690" width="60" height="20" as="geometry" />
        </mxCell>
        <mxCell id="PDsMdYbchzR6qBBDPlei-20" value="重规范" style="text;html=1;strokeColor=none;fillColor=none;align=center;verticalAlign=middle;whiteSpace=wrap;rounded=0;fontFamily=Comic Sans MS;fontStyle=1;fontSize=17;" parent="1" vertex="1">
          <mxGeometry x="460" y="690" width="60" height="20" as="geometry" />
        </mxCell>
        <mxCell id="PDsMdYbchzR6qBBDPlei-25" value="业务方" style="rounded=1;whiteSpace=wrap;html=1;fontFamily=Comic Sans MS;fontSize=17;" parent="1" vertex="1">
          <mxGeometry x="250" y="-490" width="750" height="60" as="geometry" />
        </mxCell>
        <mxCell id="PDsMdYbchzR6qBBDPlei-29" value="小程序官方组件" style="rounded=1;whiteSpace=wrap;html=1;fontFamily=Comic Sans MS;fontSize=17;" parent="1" vertex="1">
          <mxGeometry x="250" y="-160" width="470" height="60" as="geometry" />
        </mxCell>
        <mxCell id="PDsMdYbchzR6qBBDPlei-30" value="dingui-mini" style="rounded=1;whiteSpace=wrap;html=1;fontFamily=Comic Sans MS;fontSize=17;" parent="1" vertex="1">
          <mxGeometry x="250" y="-240" width="470" height="60" as="geometry" />
        </mxCell>
        <mxCell id="PDsMdYbchzR6qBBDPlei-31" value="业务组件" style="rounded=1;whiteSpace=wrap;html=1;fontFamily=Comic Sans MS;fontSize=17;" parent="1" vertex="1">
          <mxGeometry x="250" y="-320" width="470" height="60" as="geometry" />
        </mxCell>
        <mxCell id="PDsMdYbchzR6qBBDPlei-32" value="区块" style="rounded=1;whiteSpace=wrap;html=1;fontFamily=Comic Sans MS;fontSize=17;" parent="1" vertex="1">
          <mxGeometry x="250" y="-400" width="470" height="60" as="geometry" />
        </mxCell>
        <mxCell id="PDsMdYbchzR6qBBDPlei-33" value="工具" style="rounded=1;whiteSpace=wrap;html=1;fontFamily=Comic Sans MS;fontSize=17;" parent="1" vertex="1">
          <mxGeometry x="740" y="-400" width="120" height="300" as="geometry" />
        </mxCell>
        <mxCell id="PDsMdYbchzR6qBBDPlei-34" value="平台" style="rounded=1;whiteSpace=wrap;html=1;fontFamily=Comic Sans MS;fontSize=17;" parent="1" vertex="1">
          <mxGeometry x="880" y="-400" width="120" height="300" as="geometry" />
        </mxCell>
        <mxCell id="PDsMdYbchzR6qBBDPlei-36" style="edgeStyle=orthogonalEdgeStyle;rounded=0;orthogonalLoop=1;jettySize=auto;html=1;exitX=0.5;exitY=1;exitDx=0;exitDy=0;fontFamily=Comic Sans MS;fontSize=17;" parent="1" edge="1">
          <mxGeometry relative="1" as="geometry">
            <mxPoint x="940" y="-100" as="sourcePoint" />
            <mxPoint x="940" y="-100" as="targetPoint" />
          </mxGeometry>
        </mxCell>
        <mxCell id="vsi_exjW1HiKRHZsvrKF-1" value="反推导" style="text;html=1;align=center;verticalAlign=middle;resizable=0;points=[];autosize=1;fontSize=17;fontStyle=1" parent="1" vertex="1">
          <mxGeometry x="379" y="815" width="70" height="30" as="geometry" />
        </mxCell>
        <mxCell id="vsi_exjW1HiKRHZsvrKF-2" value="组装" style="text;html=1;align=center;verticalAlign=middle;resizable=0;points=[];autosize=1;fontSize=17;fontStyle=1" parent="1" vertex="1">
          <mxGeometry x="413" y="970" width="50" height="30" as="geometry" />
        </mxCell>
        <mxCell id="vsi_exjW1HiKRHZsvrKF-5" value="" style="edgeStyle=orthogonalEdgeStyle;rounded=0;orthogonalLoop=1;jettySize=auto;html=1;fontSize=17;" parent="1" source="vsi_exjW1HiKRHZsvrKF-3" edge="1">
          <mxGeometry relative="1" as="geometry">
            <mxPoint x="1150" y="519.9999999999995" as="targetPoint" />
          </mxGeometry>
        </mxCell>
        <mxCell id="vsi_exjW1HiKRHZsvrKF-3" value="确定区块及其衍生区块" style="rounded=1;whiteSpace=wrap;html=1;fontFamily=Comic Sans MS;fontStyle=1;fontSize=17;" parent="1" vertex="1">
          <mxGeometry x="1090" y="380" width="120" height="60" as="geometry" />
        </mxCell>
        <mxCell id="vsi_exjW1HiKRHZsvrKF-17" style="edgeStyle=orthogonalEdgeStyle;rounded=0;orthogonalLoop=1;jettySize=auto;html=1;exitX=0.5;exitY=1;exitDx=0;exitDy=0;entryX=0.5;entryY=0;entryDx=0;entryDy=0;fontFamily=Comic Sans MS;fontStyle=1;fontSize=17;" parent="1" source="vsi_exjW1HiKRHZsvrKF-19" target="vsi_exjW1HiKRHZsvrKF-24" edge="1">
          <mxGeometry relative="1" as="geometry">
            <mxPoint x="1044.97" y="659.9999999999995" as="targetPoint" />
            <Array as="points">
              <mxPoint x="1145" y="620" />
              <mxPoint x="900" y="620" />
            </Array>
          </mxGeometry>
        </mxCell>
        <mxCell id="vsi_exjW1HiKRHZsvrKF-18" style="edgeStyle=orthogonalEdgeStyle;rounded=0;orthogonalLoop=1;jettySize=auto;html=1;fontFamily=Comic Sans MS;fontStyle=1;fontSize=17;entryX=0.5;entryY=0;entryDx=0;entryDy=0;" parent="1" source="vsi_exjW1HiKRHZsvrKF-19" target="vsi_exjW1HiKRHZsvrKF-25" edge="1">
          <mxGeometry relative="1" as="geometry">
            <mxPoint x="1255.0288235294122" y="659.9999999999995" as="targetPoint" />
            <Array as="points">
              <mxPoint x="1145" y="620" />
              <mxPoint x="1400" y="620" />
            </Array>
          </mxGeometry>
        </mxCell>
        <mxCell id="vsi_exjW1HiKRHZsvrKF-19" value="确定schema配置" style="rounded=1;whiteSpace=wrap;html=1;fontFamily=Comic Sans MS;fontStyle=1;fontSize=17;" parent="1" vertex="1">
          <mxGeometry x="1084.97" y="520" width="120" height="60" as="geometry" />
        </mxCell>
        <mxCell id="vsi_exjW1HiKRHZsvrKF-24" value="view主题" style="rounded=1;whiteSpace=wrap;html=1;fontFamily=Comic Sans MS;fontStyle=1;fontSize=17;" parent="1" vertex="1">
          <mxGeometry x="840" y="660" width="120" height="60" as="geometry" />
        </mxCell>
        <mxCell id="vsi_exjW1HiKRHZsvrKF-25" value="js 逻辑" style="rounded=1;whiteSpace=wrap;html=1;fontFamily=Comic Sans MS;fontStyle=1;fontSize=17;" parent="1" vertex="1">
          <mxGeometry x="1340" y="660" width="120" height="60" as="geometry" />
        </mxCell>
        <mxCell id="vsi_exjW1HiKRHZsvrKF-30" value="默认逻辑" style="rounded=1;whiteSpace=wrap;html=1;fontFamily=Comic Sans MS;fontStyle=1;fontSize=17;" parent="1" vertex="1">
          <mxGeometry x="1200" y="750" width="250" height="70" as="geometry" />
        </mxCell>
        <mxCell id="vsi_exjW1HiKRHZsvrKF-31" value="自定义逻辑" style="rounded=1;whiteSpace=wrap;html=1;fontFamily=Comic Sans MS;fontStyle=1;fontSize=17;" parent="1" vertex="1">
          <mxGeometry x="1480" y="750" width="120" height="160" as="geometry" />
        </mxCell>
        <mxCell id="vsi_exjW1HiKRHZsvrKF-32" value="回调逻辑" style="rounded=1;whiteSpace=wrap;html=1;fontFamily=Comic Sans MS;fontStyle=1;fontSize=17;" parent="1" vertex="1">
          <mxGeometry x="1200" y="845" width="120" height="60" as="geometry" />
        </mxCell>
        <mxCell id="vsi_exjW1HiKRHZsvrKF-33" value="回调逻辑" style="rounded=1;whiteSpace=wrap;html=1;fontFamily=Comic Sans MS;fontStyle=1;fontSize=17;" parent="1" vertex="1">
          <mxGeometry x="1330" y="845" width="120" height="60" as="geometry" />
        </mxCell>
        <mxCell id="vsi_exjW1HiKRHZsvrKF-39" value="默认主题1" style="rounded=1;whiteSpace=wrap;html=1;fontFamily=Comic Sans MS;fontStyle=1;fontSize=17;" parent="1" vertex="1">
          <mxGeometry x="707" y="845" width="120" height="60" as="geometry" />
        </mxCell>
        <mxCell id="vsi_exjW1HiKRHZsvrKF-40" value="默认主题2" style="rounded=1;whiteSpace=wrap;html=1;fontFamily=Comic Sans MS;fontStyle=1;fontSize=17;" parent="1" vertex="1">
          <mxGeometry x="840" y="845" width="120" height="60" as="geometry" />
        </mxCell>
        <mxCell id="vsi_exjW1HiKRHZsvrKF-42" value="自定义主题" style="rounded=1;whiteSpace=wrap;html=1;fontFamily=Comic Sans MS;fontStyle=1;fontSize=17;" parent="1" vertex="1">
          <mxGeometry x="980" y="842.5" width="120" height="65" as="geometry" />
        </mxCell>
        <mxCell id="vsi_exjW1HiKRHZsvrKF-43" value="page1" style="ellipse;whiteSpace=wrap;html=1;rounded=1;fontFamily=Comic Sans MS;fontSize=17;fontStyle=1;" parent="1" vertex="1">
          <mxGeometry x="707" y="980" width="120" height="80" as="geometry" />
        </mxCell>
        <mxCell id="vsi_exjW1HiKRHZsvrKF-46" value="page2" style="ellipse;whiteSpace=wrap;html=1;rounded=1;fontFamily=Comic Sans MS;fontSize=17;fontStyle=1;" parent="1" vertex="1">
          <mxGeometry x="910" y="980" width="120" height="80" as="geometry" />
        </mxCell>
        <mxCell id="vsi_exjW1HiKRHZsvrKF-47" value="page3" style="ellipse;whiteSpace=wrap;html=1;rounded=1;fontFamily=Comic Sans MS;fontSize=17;fontStyle=1;" parent="1" vertex="1">
          <mxGeometry x="1100" y="980" width="120" height="80" as="geometry" />
        </mxCell>
        <mxCell id="vsi_exjW1HiKRHZsvrKF-48" value="page4" style="ellipse;whiteSpace=wrap;html=1;rounded=1;fontFamily=Comic Sans MS;fontSize=17;fontStyle=1;" parent="1" vertex="1">
          <mxGeometry x="1290" y="980" width="120" height="80" as="geometry" />
        </mxCell>
        <mxCell id="vsi_exjW1HiKRHZsvrKF-49" value="page。。。" style="ellipse;whiteSpace=wrap;html=1;rounded=1;fontFamily=Comic Sans MS;fontSize=17;fontStyle=1;" parent="1" vertex="1">
          <mxGeometry x="1480" y="980" width="120" height="80" as="geometry" />
        </mxCell>
        <mxCell id="vsi_exjW1HiKRHZsvrKF-59" value="dt-design" style="rounded=1;whiteSpace=wrap;html=1;fontSize=17;" parent="1" vertex="1">
          <mxGeometry x="1120" y="1350" width="120" height="60" as="geometry" />
        </mxCell>
      </root>
    </mxGraphModel>
  </diagram>
</mxfile>
